<svg id="Layer_1" data-name="Layer 1" xmlns="http://www.w3.org/2000/svg" viewBox="0 0 76.42 652.56"><defs><style>.cls-1{fill:#71c6cf;}</style></defs><title>branch</title><path class="cls-1" d="M240.86,761.77v-579c0-5.62-2.28-10.16-5.09-10.16-1.41,0-2.68,1.13-3.6,3a16.26,16.26,0,0,0-1.49,7.18v59.47c0,28.84-11.73,52.22-26.19,52.22H179.15c-1.46-4.14-3.87-6.85-6.6-6.85-4.46,0-8.08,7.21-8.08,16.11s3.62,16.11,8.08,16.11c1.93,0,3.7-1.36,5.09-3.61h31.94c8.66,0,16.33-8.37,21.1-21.28V746.83c0,1.49,0,3-.1,4.45V760c0,21.58-8.77,39.08-19.59,39.08H178.88c-1.48-3.73-3.76-6.13-6.33-6.13-4.46,0-8.08,7.22-8.08,16.11s3.62,16.11,8.08,16.11c2.13,0,4.06-1.65,5.5-4.34h34.52c7.82,0,14.9-6.32,20-16.53s8.29-24.34,8.29-39.95C240.89,763.46,240.88,762.62,240.86,761.77Z" transform="translate(-164.47 -172.58)"/></svg>